<?xml version="1.0" encoding="utf-8"?>
<!-- Generator: Adobe Illustrator 18.0.0, SVG Export Plug-In . SVG Version: 6.00 Build 0)  -->
<!DOCTYPE svg PUBLIC "-//W3C//DTD SVG 1.1//EN" "http://www.w3.org/Graphics/SVG/1.1/DTD/svg11.dtd">
<svg version="1.1" id="Layer_3" xmlns="http://www.w3.org/2000/svg" xmlns:xlink="http://www.w3.org/1999/xlink" x="0px" y="0px"
	 viewBox="0 0 200 196.7" enable-background="new 0 0 200 196.7" xml:space="preserve">
<path fill-rule="evenodd" clip-rule="evenodd" d="M16.9,66.3l63.8-27.9c10.6-4.6,27.9-4.6,38.5,0l63.8,27.9l0,0L100,102.6l0,0
	L16.9,66.3L16.9,66.3z"/>
<path fill-rule="evenodd" clip-rule="evenodd" fill="#2398CC" d="M16.9,87.7c0.1,0,0.1,0,0.2,0.1c26.7,11.9,83.9,36.1,83.9,36.1
	c0.3-0.1,54.5-24.3,82.1-36.2c0,8.3,0,16.6,0,24.8c-27,12-53.9,24.1-80.9,36.2c-0.1,0.1-0.3,0.1-0.4,0.2c-0.1,0.1-0.3,0.1-0.4,0.2
	c0,0,0,0-0.1,0c-0.1,0-0.1,0-0.2-0.1C73,136.8,45,124.7,16.9,112.5C16.9,104.3,16.9,96,16.9,87.7z"/>
<path fill-rule="evenodd" clip-rule="evenodd" fill="#107699" d="M20.2,132.2c14.7,6.2,82.4,35.2,81.2,35.2c-12.7,0-84.4,0-84.4,0
	v-36.6C16.9,130.8,18.1,131.3,20.2,132.2z"/>
<path fill-rule="evenodd" clip-rule="evenodd" fill="#107699" d="M101.4,167.3C101.4,167.3,101.4,167.3,101.4,167.3
	C101.4,167.3,101.4,167.3,101.4,167.3c-0.1,0-0.1,0.1-0.1,0.1H183v-36.6C183,130.8,104.9,165.7,101.4,167.3z"/>
</svg>
