<?xml version="1.0" encoding="utf-8"?>
<!-- Generator: Adobe Illustrator 18.0.0, SVG Export Plug-In . SVG Version: 6.00 Build 0)  -->
<!DOCTYPE svg PUBLIC "-//W3C//DTD SVG 1.1//EN" "http://www.w3.org/Graphics/SVG/1.1/DTD/svg11.dtd">
<svg version="1.1" id="Layer_3" xmlns="http://www.w3.org/2000/svg" xmlns:xlink="http://www.w3.org/1999/xlink" x="0px" y="0px"
	 viewBox="0 0 225.5 86.4" enable-background="new 0 0 225.5 86.4" xml:space="preserve">
<g>
	<!-- fill color -->
	<path fill-rule="evenodd" clip-rule="evenodd" fill="#2398CC" d="M29.7,12.5c0.1,0,0.1,0,0.2,0.1c26.7,11.9,83.9,36.1,83.9,36.1
		c0.3-0.1,54.5-24.3,82.1-36.2c0,8.3,0,16.6,0,24.8c-27,12-53.9,24.1-80.9,36.2c-0.1,0.1-0.3,0.1-0.4,0.2c-0.1,0.1-0.3,0.1-0.4,0.2
		c0,0,0,0-0.1,0c-0.1,0-0.1,0-0.2-0.1C85.8,61.6,57.8,49.5,29.7,37.4C29.7,29.1,29.7,20.8,29.7,12.5z"/>
</g>
</svg>
