<?xml version="1.0" standalone="no"?>
<!DOCTYPE svg PUBLIC "-//W3C//DTD SVG 20010904//EN"
 "http://www.w3.org/TR/2001/REC-SVG-20010904/DTD/svg10.dtd">
<svg version="1.0" xmlns="http://www.w3.org/2000/svg"
 width="800.000000pt" height="800.000000pt" viewBox="0 0 800.000000 800.000000"
 preserveAspectRatio="xMidYMid meet">
<metadata>
Created by potrace 1.11, written by Peter Selinger 2001-2013
</metadata>
<g transform="translate(0.000000,800.000000) scale(0.100000,-0.100000)"
fill="#000000" stroke="none">
<path d="M3788 6525 c-2 -2 -30 -7 -63 -10 -33 -4 -73 -8 -90 -10 -114 -13
-331 -76 -455 -132 -30 -14 -68 -31 -85 -38 -16 -7 -50 -22 -75 -33 -25 -10
-115 -50 -200 -87 -85 -37 -183 -80 -218 -96 -35 -16 -65 -29 -67 -29 -3 0
-28 -11 -57 -24 -29 -13 -127 -56 -218 -96 -90 -39 -169 -74 -175 -78 -5 -4
-15 -7 -22 -8 -7 -1 -36 -13 -65 -27 -29 -13 -69 -32 -88 -40 -19 -8 -62 -27
-95 -42 -33 -14 -69 -30 -80 -34 -11 -5 -51 -23 -88 -40 -37 -17 -70 -31 -72
-31 -3 0 -39 -16 -81 -35 -41 -19 -77 -35 -79 -35 -3 0 -30 -12 -61 -26 -31
-14 -91 -40 -133 -58 -176 -76 -408 -177 -436 -190 -16 -8 -47 -22 -68 -32
-21 -9 -36 -18 -35 -19 11 -8 195 -85 206 -85 6 0 12 -4 12 -10 0 -5 7 -10 15
-10 8 0 23 -4 33 -10 9 -5 60 -28 112 -51 52 -22 113 -48 135 -59 22 -10 110
-48 195 -85 85 -37 171 -75 190 -83 19 -9 37 -17 40 -17 3 -1 28 -11 55 -24
28 -12 111 -49 185 -81 74 -32 170 -74 214 -94 43 -20 85 -36 92 -36 8 0 14
-4 14 -10 0 -5 6 -10 13 -10 11 0 153 -60 262 -110 38 -18 290 -128 385 -168
52 -22 130 -56 173 -76 42 -20 80 -36 83 -36 3 0 39 -16 80 -35 40 -19 76 -35
79 -35 3 0 27 -10 53 -21 111 -51 151 -68 219 -98 39 -17 93 -41 120 -53 26
-12 50 -22 53 -22 6 -2 190 -82 247 -108 50 -23 65 -21 170 27 41 19 76 35 78
35 2 0 32 13 67 29 35 16 97 43 138 61 41 18 103 45 138 61 35 16 65 29 67 29
2 0 38 16 79 35 42 19 78 35 81 35 2 0 35 14 72 31 38 17 88 39 113 49 25 10
79 34 120 53 67 31 105 47 120 52 3 1 30 13 61 27 31 14 73 32 93 39 20 7 36
17 36 21 0 4 3 7 8 6 4 -1 24 6 46 15 21 9 40 17 41 17 2 0 38 16 79 35 42 19
78 35 81 35 3 0 39 16 81 35 41 19 77 35 79 35 3 0 28 11 57 24 29 13 91 41
138 61 47 21 108 48 135 60 28 12 75 32 105 45 30 12 93 40 138 61 46 22 89
39 96 39 7 0 16 4 22 9 5 5 38 21 74 36 36 15 88 38 117 51 29 13 115 51 192
84 76 33 151 66 167 74 15 8 31 13 36 10 4 -3 8 0 8 5 0 6 8 11 18 11 10 0 22
4 27 9 6 5 46 24 90 42 44 18 84 36 88 40 5 3 -15 18 -45 32 -148 69 -190 87
-201 87 -7 0 -17 4 -22 9 -6 5 -59 30 -120 56 -60 26 -130 56 -155 67 -25 11
-58 26 -75 33 -16 7 -52 23 -80 35 -27 13 -70 32 -95 43 -25 11 -49 21 -55 23
-8 2 -185 79 -340 149 -16 7 -140 61 -275 120 -135 58 -258 112 -275 120 -609
271 -936 407 -1010 421 -11 2 -40 8 -65 14 -25 5 -56 12 -70 14 -14 2 -41 7
-60 10 -19 4 -51 9 -70 12 -40 7 -496 15 -502 9z"/>
<path d="M675 3925 l0 -495 60 -26 c33 -15 78 -35 100 -44 118 -53 231 -102
240 -104 6 -1 37 -15 70 -30 71 -33 106 -48 120 -52 9 -2 354 -153 400 -174
47 -22 366 -160 370 -160 4 0 56 -23 173 -76 31 -15 63 -27 70 -27 6 0 12 -4
12 -9 0 -4 5 -8 11 -8 9 0 60 -21 194 -80 22 -10 110 -48 195 -84 85 -37 164
-71 175 -76 151 -68 251 -110 262 -110 7 0 13 -5 13 -10 0 -6 3 -9 8 -8 8 1
29 -6 87 -32 22 -10 66 -30 98 -44 32 -14 60 -26 62 -26 2 0 28 -11 57 -24 29
-13 107 -47 173 -75 66 -29 135 -58 153 -66 17 -8 34 -15 37 -15 3 0 21 -9 40
-20 20 -11 40 -20 45 -20 5 0 38 -13 72 -30 34 -16 69 -30 79 -30 9 0 55 17
101 39 45 21 110 50 143 64 55 23 155 68 265 120 25 11 47 21 50 22 8 3 52 22
115 51 33 15 62 28 65 29 3 0 21 8 40 17 126 60 210 96 210 90 0 -4 4 -2 8 4
4 5 32 21 62 33 30 13 84 37 120 54 36 17 67 31 70 32 8 3 52 22 124 55 119
53 129 58 186 83 30 13 75 34 100 45 25 11 86 38 135 60 50 22 117 53 150 68
33 15 62 28 65 29 3 0 22 8 43 18 20 9 54 25 75 34 20 10 39 18 42 18 3 1 30
13 60 27 30 14 75 34 100 45 25 11 92 42 150 68 58 26 111 48 118 48 6 0 12 4
12 9 0 4 4 8 9 8 5 0 38 13 73 30 88 40 122 54 131 52 4 -1 7 3 7 8 0 6 6 10
13 10 7 0 32 9 55 20 78 38 334 150 342 150 32 0 34 29 35 517 0 267 -2 486
-5 488 -3 2 -34 -10 -69 -26 -35 -16 -70 -29 -77 -29 -8 0 -14 -4 -14 -10 0
-5 -7 -10 -15 -10 -8 0 -23 -4 -33 -10 -19 -10 -101 -47 -195 -86 -34 -15 -82
-35 -107 -46 -25 -12 -63 -29 -85 -38 -22 -10 -70 -32 -108 -49 -37 -17 -70
-31 -73 -31 -3 0 -35 -13 -71 -30 -35 -16 -66 -30 -68 -30 -2 0 -34 -14 -72
-32 -37 -18 -70 -33 -73 -33 -11 -3 -67 -27 -105 -45 -35 -16 -78 -35 -275
-121 -63 -28 -75 -33 -163 -73 -42 -20 -79 -36 -81 -36 -3 0 -39 -16 -80 -35
-42 -19 -78 -35 -81 -35 -3 0 -33 -13 -67 -29 -35 -16 -166 -75 -293 -131
-126 -56 -254 -113 -283 -126 -29 -13 -54 -24 -56 -24 -2 0 -42 -17 -88 -39
-45 -21 -111 -51 -145 -65 -35 -14 -89 -38 -120 -53 -32 -15 -60 -28 -63 -28
-6 -2 -64 -28 -130 -57 -56 -26 -128 -57 -138 -60 -4 -1 -17 -7 -30 -14 -20
-10 -43 -3 -185 58 -89 38 -216 92 -282 120 -253 107 -332 141 -383 164 -29
13 -56 24 -61 24 -4 0 -30 11 -57 25 -27 14 -52 25 -56 25 -4 0 -31 11 -60 24
-45 20 -75 33 -98 41 -3 1 -22 9 -42 18 -21 10 -55 24 -75 34 -21 9 -40 17
-43 18 -9 3 -122 52 -190 82 -19 8 -48 21 -65 28 -123 52 -168 71 -223 96 -35
16 -65 29 -68 29 -2 0 -23 9 -47 19 -23 11 -91 40 -152 66 -60 26 -128 55
-150 65 -22 10 -85 37 -140 60 -55 23 -120 51 -145 62 -25 11 -58 26 -75 33
-16 8 -55 24 -85 38 -30 13 -161 70 -290 127 -129 56 -253 110 -275 120 -66
29 -137 60 -139 60 0 0 -1 -223 -1 -495z"/>
<path d="M681 2682 c0 -47 -1 -159 0 -174 0 -36 0 -148 -1 -165 0 -98 2 -158
5 -162 3 -2 0 -10 -6 -17 -7 -8 -7 -14 1 -19 6 -4 7 -12 1 -24 -5 -9 -6 -23
-1 -30 4 -8 5 -25 1 -40 -7 -28 -6 -90 3 -98 2 -3 1 -16 -4 -29 -6 -16 -6 -24
1 -24 6 0 6 -6 0 -18 -5 -10 -6 -24 -1 -31 4 -8 5 -25 1 -40 -7 -28 -6 -90 3
-98 2 -3 1 -16 -4 -29 -6 -16 -6 -24 1 -24 6 0 6 -6 0 -18 -5 -10 -6 -24 -1
-31 4 -8 5 -25 1 -40 -7 -28 -6 -90 3 -98 2 -3 1 -16 -4 -29 -6 -16 -6 -24 1
-24 6 0 6 -6 0 -18 -5 -10 -6 -24 -1 -31 4 -8 5 -25 1 -40 -8 -31 -7 -74 2
-88 7 -11 3357 -15 3357 -4 0 5 -42 27 -70 35 -3 1 -32 15 -65 30 -33 15 -74
34 -90 41 -17 8 -53 24 -80 36 -28 12 -52 23 -55 24 -3 1 -32 14 -65 29 -33
15 -64 29 -70 30 -5 1 -17 6 -25 11 -8 5 -24 11 -35 12 -11 2 -21 8 -23 13 -2
6 -9 10 -15 10 -6 0 -94 37 -196 81 -103 45 -285 124 -406 176 -121 52 -244
106 -273 119 -29 13 -55 24 -57 24 -2 0 -29 11 -59 25 -53 24 -90 40 -111 45
-11 4 -100 45 -127 61 -10 5 -22 9 -28 9 -5 0 -37 13 -69 29 -33 16 -62 26
-65 23 -4 -3 -6 1 -6 8 0 7 -3 11 -6 8 -5 -5 -43 10 -159 62 -35 15 -106 46
-245 105 -74 31 -148 63 -165 70 -81 35 -104 44 -147 64 -57 25 -99 43 -113
47 -11 3 -266 114 -332 144 -24 11 -45 20 -48 20 -7 0 -85 35 -127 56 -24 12
-27 12 -27 -4z"/>
<path d="M7137 2616 c-152 -71 -242 -109 -242 -104 0 2 -11 -5 -25 -15 -13 -9
-32 -17 -41 -17 -10 0 -19 -5 -21 -11 -2 -5 -10 -11 -18 -13 -8 -1 -43 -15
-77 -30 -34 -16 -65 -27 -69 -26 -4 1 -10 -2 -13 -7 -3 -5 -31 -20 -61 -32
-54 -23 -108 -47 -225 -101 -33 -15 -98 -44 -145 -64 -47 -21 -107 -48 -135
-60 -27 -13 -66 -30 -85 -39 -19 -8 -60 -26 -90 -40 -30 -14 -77 -35 -105 -47
-121 -53 -162 -72 -186 -85 -14 -8 -29 -12 -33 -8 -3 3 -6 1 -6 -5 0 -7 -6
-12 -13 -12 -8 0 -27 -6 -43 -14 -39 -19 -142 -66 -234 -106 -41 -18 -109 -48
-150 -67 -41 -19 -79 -35 -85 -36 -5 -1 -12 -4 -15 -7 -6 -6 -190 -91 -205
-94 -5 -1 -40 -17 -77 -34 -78 -37 -141 -65 -148 -66 -3 -1 -31 -14 -64 -29
-32 -15 -62 -27 -67 -27 -5 0 -9 -4 -9 -8 0 -5 -7 -9 -15 -9 -8 0 -34 -9 -57
-21 -68 -33 -136 -62 -147 -62 -6 0 -11 -4 -11 -10 0 -5 -5 -10 -10 -10 -22 0
-140 -56 -145 -68 -3 -8 0 -10 6 -6 7 4 741 7 1633 8 1436 1 1621 3 1617 16
-5 18 -5 32 1 86 2 23 1 50 -3 60 -3 11 -3 29 2 42 5 14 5 22 -2 22 -6 0 -6 6
0 18 5 10 6 24 1 31 -4 8 -5 25 -1 40 4 14 5 37 1 51 -4 14 -3 37 1 53 4 15 4
27 -1 27 -5 0 -5 12 -1 28 7 29 6 90 -3 99 -2 3 -1 16 4 29 6 16 6 24 -1 24
-6 0 -6 6 0 18 5 10 6 24 1 31 -4 8 -5 25 -1 40 7 28 6 90 -3 98 -2 3 -1 16 4
29 6 16 6 24 -1 24 -6 0 -6 6 0 18 5 10 6 24 1 31 -4 8 -5 25 -1 40 4 14 5 37
1 51 -4 14 -3 37 1 53 4 15 4 27 -1 27 -5 0 -5 12 -1 28 7 29 6 90 -3 99 -2 3
-1 16 4 29 6 16 6 24 -1 24 -6 0 -6 6 0 18 5 10 6 24 1 31 -4 8 -5 25 -1 40
12 47 2 102 -17 100 -4 0 -78 -33 -165 -73z"/>
</g>
</svg>
